# xmcd
#
# Track frame offsets:
# 150
# 25745
# 38638
# 59658
# 75823
# 107698
# 122948
# 144260
# 160165
# 178017
# 197367
# 219442
# 243982
# 262947
# 272929
#
# Disc length: 3814 seconds
#
# Revision: 0
# Processed by: cddbd v1.5.1PL0 Copyright (c) Steve Scherf et al.
# Submitted via: MacMP3 Pro 5.0 (http://mp3.act2.co.jp/)
#
DISCID=c40ee40f
DTITLE=James Taylor - James Taylor (Live) 
DYEAR=1900
DGENRE=
TTITLE0=Country Road
TTITLE1=Everybody Has the Blues
TTITLE2=Fire and Rain
TTITLE3=Handy Man
TTITLE4=How Sweet It Is
TTITLE5=Mexico
TTITLE6=Millworker
TTITLE7=New Hymn
TTITLE8=Secret O' Life
TTITLE9=Shed a Little Light
TTITLE10=Shower the People
TTITLE11=Steamroller
TTITLE12=Sweet Baby James
TTITLE13=Traffic Jam
TTITLE14=Your Smiling Face
EXTD=
EXTT0=
EXTT1=
EXTT2=
EXTT3=
EXTT4=
EXTT5=
EXTT6=
EXTT7=
EXTT8=
EXTT9=
EXTT10=
EXTT11=
EXTT12=
EXTT13=
EXTT14=
PLAYORDER=
